<svg xmlns="http://www.w3.org/2000/svg" viewBox="0 0 89.43 89.43"><defs><style>.cls-1{fill:#63a7c1;}.cls-2{fill:none;}.cls-3{fill:#fc5656;}.cls-4{fill:#fccd56;}.cls-5{fill:#f4b516;}</style></defs><title>Asset 6</title><g id="Layer_2" data-name="Layer 2"><g id="Camada_1" data-name="Camada 1"><g id="_Group_" data-name="&lt;Group&gt;"><circle id="_Path_" data-name="&lt;Path&gt;" class="cls-1" cx="44.71" cy="44.71" r="44.71"/><g id="_Group_2" data-name="&lt;Group&gt;"><g id="_Group_3" data-name="&lt;Group&gt;"><rect id="_Path_2" data-name="&lt;Path&gt;" class="cls-2" x="37.74" y="23.53" width="13.93" height="13.93" transform="translate(-8.47 40.54) rotate(-45)"/><rect id="_Path_3" data-name="&lt;Path&gt;" class="cls-2" x="45.95" y="8.91" width="4.32" height="4.32" transform="translate(6.26 37.26) rotate(-45)"/><path id="_Compound_Path_" data-name="&lt;Compound Path&gt;" class="cls-3" d="M89.43,44.71A44.71,44.71,0,0,0,45.21,0L46.49,1.3,45.06,2.73,43.62,1.3,44.91,0h-.2A44.71,44.71,0,0,0,36,88.58V78.1L28.61,63.95l-4.55-6.19-4.16-6.44L23,49.84l6,2.94,5.74,4.53L43.86,47,60.27,36.49l3,1.82-11.4,11,.83.83,15.9-11.57,1.76,3.75L57.92,55.36l.37.37L70.67,47,72,50.59l-9.35,9.49.55.55,7.48-4.82L71,58.65,55.62,73.24l-3.93,4.3V88.88A44.72,44.72,0,0,0,89.43,44.71ZM48.11,8l3.05,3.05-3.05,3.05-3.05-3.05ZM44.7,40.34l-9.85-9.85,9.85-9.85,9.85,9.85Z"/><path id="_Path_4" data-name="&lt;Path&gt;" class="cls-4" d="M55.62,73.24,71,58.65l-.37-2.85-7.48,4.82-.55-.55L72,50.59,70.67,47,58.29,55.73l-.37-.37L70.35,42.31l-1.76-3.75L52.69,50.13l-.83-.83,11.4-11-3-1.82L43.86,47,34.79,57.31,29,52.78l-6-2.94-3.13,1.48,4.16,6.44,4.55,6.19L36,78.1V88.58a44.85,44.85,0,0,0,15.67.31V77.55Z"/></g><rect id="_Rectangle_" data-name="&lt;Rectangle&gt;" class="cls-5" x="35.38" y="12.93" width="6.93" height="6.93" transform="translate(22.97 -22.67) rotate(45)"/><rect id="_Rectangle_2" data-name="&lt;Rectangle&gt;" class="cls-5" x="42.74" y="28.18" width="4.62" height="4.62" rx="0.1" ry="0.1" transform="translate(34.76 -22.93) rotate(45)"/><rect id="_Rectangle_3" data-name="&lt;Rectangle&gt;" class="cls-5" x="48.71" y="17.63" width="3.98" height="3.98" rx="0.1" ry="0.1" transform="translate(28.73 -30.1) rotate(45)"/><rect id="_Rectangle_4" data-name="&lt;Rectangle&gt;" class="cls-5" x="39.06" y="6.01" width="1.4" height="1.4" rx="0.1" ry="0.1" transform="translate(16.39 -26.15) rotate(45)"/><rect id="_Rectangle_5" data-name="&lt;Rectangle&gt;" class="cls-5" x="52.77" y="12.48" width="1.4" height="1.4" rx="0.1" ry="0.1" transform="translate(24.98 -33.95) rotate(45)"/><rect id="_Rectangle_6" data-name="&lt;Rectangle&gt;" class="cls-5" x="34.96" y="22.64" width="1.4" height="1.4" rx="0.1" ry="0.1" transform="translate(26.95 -18.38) rotate(45)"/><rect id="_Rectangle_7" data-name="&lt;Rectangle&gt;" class="cls-5" x="43.48" y="4.29" width="3.15" height="3.15" transform="translate(17.35 -30.14) rotate(45)"/></g></g></g></g></svg>