<svg xmlns="http://www.w3.org/2000/svg" viewBox="0 0 66.32 89.74"><defs><style>.cls-1{fill:#5e97a5;}.cls-2{fill:#e065ab;}.cls-3{fill:#eab53f;}.cls-4{fill:#f7c341;}.cls-5{fill:#fccd56;}</style></defs><title>Asset 1</title><g id="Layer_2" data-name="Layer 2"><g id="Camada_1" data-name="Camada 1"><polygon id="_Path_" data-name="&lt;Path&gt;" class="cls-1" points="33.16 83.26 2.47 37.18 33.16 6.49 63.85 37.18 33.16 83.26"/><polygon id="_Path_2" data-name="&lt;Path&gt;" class="cls-2" points="33.16 67.06 15.77 38.68 33.16 21.29 51.17 39.38 33.16 67.06"/><g id="_Group_" data-name="&lt;Group&gt;"><polygon id="_Path_3" data-name="&lt;Path&gt;" class="cls-3" points="13.54 37.76 13.54 37.76 20.45 30.85 26.14 25.17 44.43 6.88 37.7 0.15 19.41 18.44 13.73 24.13 6.91 30.95 0 37.86 0.26 38.11 0.15 38.23 33.16 89.74 38.9 80.25 12.67 38.64 13.54 37.76"/><g id="_Group_2" data-name="&lt;Group&gt;"><polygon id="_Path_4" data-name="&lt;Path&gt;" class="cls-4" points="60.15 31.47 33.16 71.15 38.72 80.39 66.21 37.53 60.15 31.47"/><g id="_Group_3" data-name="&lt;Group&gt;"><rect id="_Path_5" data-name="&lt;Path&gt;" class="cls-5" x="30.12" y="-0.53" width="9.51" height="26.58" transform="translate(1.19 28.4) rotate(-45)"/><rect id="_Path_6" data-name="&lt;Path&gt;" class="cls-5" x="48.66" y="26.41" width="9.51" height="9.77" transform="translate(-6.48 46.94) rotate(-45)"/><rect id="_Path_7" data-name="&lt;Path&gt;" class="cls-5" x="55.11" y="33.38" width="9.51" height="8.74" transform="translate(-9.16 53.39) rotate(-45)"/><rect id="_Path_8" data-name="&lt;Path&gt;" class="cls-5" x="42.36" y="20.98" width="9.51" height="8.04" transform="translate(-3.88 40.64) rotate(-45)"/></g></g></g></g></g></svg>