<svg xmlns="http://www.w3.org/2000/svg" viewBox="0 0 89.43 89.43"><defs><style>.cls-1{fill:#eab53f;}.cls-2{fill:#2cddc7;}.cls-3{fill:#63a7c1;}</style></defs><title>Asset 5</title><g id="Layer_2" data-name="Layer 2"><g id="Camada_1" data-name="Camada 1"><g id="_Group_" data-name="&lt;Group&gt;"><circle id="_Path_" data-name="&lt;Path&gt;" class="cls-1" cx="44.71" cy="44.71" r="44.71"/><path id="_Compound_Path_" data-name="&lt;Compound Path&gt;" class="cls-2" d="M44.71,0A44.71,44.71,0,1,0,89.43,44.71,44.71,44.71,0,0,0,44.71,0ZM62,52h0A10.65,10.65,0,1,1,62,36.9h0A10.65,10.65,0,0,1,62,52Z"/><g id="_Group_2" data-name="&lt;Group&gt;"><polygon id="_Path_2" data-name="&lt;Path&gt;" class="cls-3" points="44.73 14.61 44.71 14.62 44.7 14.61 7.28 43.48 40.06 69.83 40.04 69.85 45.53 74.54 45.55 74.52 45.58 74.54 51.07 69.85 51.05 69.83 66.22 56.89 60.73 57.57 45.55 65.15 16.69 46.46 44.71 28.39 73.81 46.46 82.15 43.48 44.73 14.61"/><polygon id="_Path_3" data-name="&lt;Path&gt;" class="cls-3" points="22.13 65.46 23.08 66.27 28.73 63.26 26.18 61.09 22.13 65.46"/><polygon id="_Path_4" data-name="&lt;Path&gt;" class="cls-3" points="31.02 73.06 32.3 74.15 37.56 70.8 35.01 68.63 31.02 73.06"/><polygon id="_Path_5" data-name="&lt;Path&gt;" class="cls-3" points="60.15 64.45 65.28 67.79 66.83 66.47 63.1 61.57 60.15 64.45"/><polygon id="_Path_6" data-name="&lt;Path&gt;" class="cls-3" points="51.92 71.35 57.04 74.82 58.09 73.93 54.47 69.18 51.92 71.35"/></g></g></g></g></svg>