<svg xmlns="http://www.w3.org/2000/svg" viewBox="0 0 91.01 91.01"><defs><style>.cls-1{fill:#63a7c1;}.cls-2{fill:#f7c341;}.cls-3{fill:#acdd4e;}</style></defs><title>Asset 4</title><g id="Layer_2" data-name="Layer 2"><g id="Camada_1" data-name="Camada 1"><g id="_Group_" data-name="&lt;Group&gt;"><circle id="_Path_" data-name="&lt;Path&gt;" class="cls-1" cx="45.5" cy="45.5" r="45.5"/><g id="_Group_2" data-name="&lt;Group&gt;"><polygon id="_Path_2" data-name="&lt;Path&gt;" class="cls-2" points="46.77 10.17 37.56 10.68 16.3 44.99 48.17 73.77 77.36 44.99 54.82 25.65 46.77 10.17"/><path id="_Compound_Path_" data-name="&lt;Compound Path&gt;" class="cls-3" d="M45.5,0A45.5,45.5,0,1,0,91,45.5,45.5,45.5,0,0,0,45.5,0Zm1.08,80.33L10.69,44.43l27-22.29-3.08-2.71,13.1-5L43.14,27.36l-2.68-2.43-14.1,19.5,20.22,16.7,17.09-16.7-9.43-9.85L45.13,40.8l2,4.73,7.71,0-8.23,7.08-3.92-7.05-3.41-6L56,24.08l1.86,1.86L80.32,44.43Z"/></g></g></g></g></svg>