<svg xmlns="http://www.w3.org/2000/svg" viewBox="0 0 89.88 89.88"><defs><style>.cls-1{fill:#63a7c1;}.cls-2{fill:#fccd56;}.cls-3{fill:#e065ab;}</style></defs><title>Asset 3</title><g id="Layer_2" data-name="Layer 2"><g id="Camada_1" data-name="Camada 1"><g id="_Group_" data-name="&lt;Group&gt;"><circle id="_Path_" data-name="&lt;Path&gt;" class="cls-1" cx="44.94" cy="44.94" r="44.94"/><g id="_Group_2" data-name="&lt;Group&gt;"><rect id="_Rectangle_" data-name="&lt;Rectangle&gt;" class="cls-2" x="16.84" y="16.07" width="56.2" height="56.2" transform="translate(44.4 -18.84) rotate(45)"/><g id="_Group_3" data-name="&lt;Group&gt;"><path id="_Path_2" data-name="&lt;Path&gt;" class="cls-3" d="M45.15,81.57,28.8,65.22,34,60.07l6.16,6.16L49,57.36h-4V50.06l5.34-6,4.81-4.82,7.83,0H89.49A44.92,44.92,0,0,0,.88,36.17H16.82L44.73,8.31,61.08,24.65l-5.16,5.16-6.16-6.16-8.87,8.87h4v7.29l-5.34,6-4.81,4.82-7.83,0H.39A44.92,44.92,0,0,0,89,53.71H73.06Z"/></g></g></g></g></g></svg>